#tb 0: 1/25
#media_type 0: video
#codec_id 0: rawvideo
#dimensions 0: 20x20
#sar 0: 3543/3543
0,          0,          0,        1,     1600, 0x01a481a9
0,          1,          1,        1,     1600, 0x01a481a9
0,          2,          2,        1,     1600, 0x01a481a9
0,          3,          3,        1,     1600, 0x01a481a9
